<?xml version="1.0" encoding="UTF-8"?>
<svg id="Camada_1" xmlns="http://www.w3.org/2000/svg" version="1.1" viewBox="0 0 238 131">
  <!-- Generator: Adobe Illustrator 30.3.0, SVG Export Plug-In . SVG Version: 2.1.3 Build 182)  -->
  <defs>
    <style>
      .st0 {
        fill: #5a5a5a;
      }

      .st1 {
        fill: #fff;
      }
    </style>
  </defs>
  <path class="st0" d="M25.82,104.97c.78-2.49,1.65-4.96,2.66-7.38,1.01-2.42,2.16-4.79,3.45-7.07,1.37-2.44,2.93-4.77,4.64-6.98,2.28-2.98,4.97-5.62,7.98-7.87,1.52-1.12,3.14-2.11,4.83-2.95.87-.44,1.78-.81,2.71-1.09.99-.31,2.03-.45,3.07-.42.57.02,1.14.12,1.68.31.61.21,1.16.56,1.6,1.02.46.48.78,1.08.93,1.73.14.6.15,1.22.04,1.82-.1.56-.28,1.1-.53,1.61-.24.47-.52.92-.84,1.34-.59.78-1.24,1.52-1.94,2.19-1.4,1.34-2.97,2.48-4.67,3.4-1.71.92-3.54,1.59-5.44,1.99-2.36.5-4.81.52-7.17.04-.32-.07-.64-.16-.95-.27-.32-.11-.63-.25-.93-.42-.61-.32-1.17-.75-1.63-1.26-.47-.52-.84-1.13-1.09-1.79-.23-.63-.37-1.29-.41-1.96-.06-1.25.08-2.49.43-3.69.16-.58.34-1.15.56-1.7.11-.28.22-.55.34-.82.12-.27.24-.52.36-.79.96-2.08,2.06-4.09,3.29-6.03,4.94-7.73,11.74-14.11,19.77-18.55.3-.17.6-.33.91-.49.31-.16.61-.32.92-.47.62-.3,1.24-.6,1.87-.87,1.26-.56,2.54-1.05,3.82-1.5,1.02-.36,2.06-.65,3.12-.88.43-.09.81-.16,1.15-.21.34-.04.64-.07.91-.09.76-.05.79.1.21.4-.15.07-.33.15-.55.24-.22.09-.48.19-.77.3-.29.11-.62.23-.98.36-.36.14-.75.28-1.17.44-2.22.82-4.4,1.77-6.52,2.83-4.84,2.42-9.27,5.59-13.13,9.39-3.86,3.77-7.08,8.14-9.54,12.94-.17.33-.33.66-.5,1-.16.34-.31.68-.47,1.02-.16.34-.3.69-.45,1.03-.15.35-.3.69-.43,1.02-.52,1.29-.85,2.64-.98,4.03-.08,1.03.07,2.03.52,2.81.23.39.54.73.9,1,.19.14.39.27.6.38.21.11.43.21.66.28.24.08.48.14.73.19l.81.13c.27.03.55.06.82.09.27.01.55.04.82.04,1.11.02,2.21-.07,3.3-.27,2.19-.42,4.28-1.23,6.17-2.41.95-.59,1.84-1.25,2.68-1.99.83-.72,1.59-1.53,2.26-2.4l.18-.24.09-.12.08-.11c.1-.15.19-.3.28-.46.16-.31.28-.63.36-.97.07-.3.08-.62.04-.93-.02-.14-.06-.27-.11-.4-.05-.12-.11-.23-.19-.34-.08-.11-.17-.2-.28-.28-.11-.09-.23-.16-.36-.22-.3-.13-.62-.22-.94-.25-.37-.04-.74-.04-1.1,0-.38.04-.77.1-1.14.2-.79.2-1.55.48-2.29.82-.38.17-.76.36-1.14.55-.37.19-.75.4-1.11.6-1.47.85-2.87,1.8-4.2,2.87-2.37,1.91-4.51,4.09-6.39,6.49-1.88,2.42-3.54,5-4.97,7.71-.72,1.36-1.39,2.74-2.01,4.15-.31.7-.61,1.41-.89,2.13l-.42,1.08-.4,1.08c-.27.72-.51,1.46-.76,2.18-.23.74-.48,1.47-.7,2.21-.46,1.48-.86,2.97-1.26,4.47-1.24,4.79-2.32,9.34-3.6,13.34-.59,1.84-1.1,1.61-.82-.6.42-3.13.95-6.4,1.62-9.64.54-2.67,1.28-5.37,2.07-8.03-.01-.01-.02-.02-.03-.03Z"/>
  <path class="st0" d="M33.04,110.33c-1.16,1.14-2.23,2.37-3.19,3.67-.25.35-.5.71-.74,1.07-.23.37-.46.74-.67,1.11-.91,1.65-1.69,3.37-2.45,5.13l-1.13,2.65c-.38.89-.75,1.78-1.15,2.66h0c-.14.32-.39.55-.7.67-.31.12-.66.1-.96-.03-.19-.09-.36-.22-.48-.39-.13-.17-.21-.36-.24-.57l-.39-2.69c-.43-2.9-.86-5.8-1.28-8.71-.41-2.91-.81-5.83-1.13-8.77-.08-.89-.12-1.79-.11-2.68,0-.85.22-1.42.52-1.78.44-.52.99-.06,1.22,1.09.15.76.25,1.53.3,2.31.31,3.55.86,7.07,1.62,10.55.21.96.46,1.96.54,2.92.2,2.48.65,4.94,1.04,7.4l-2.13-.29c.23-.53.47-1.06.72-1.57,1-2.05,1.9-4.17,2.96-6.23.94-1.86,2.03-3.64,3.25-5.33,1.24-1.68,2.62-3.25,4.12-4.68.3-.28.6-.56.91-.81.31-.25.63-.48.95-.7.62-.42,1.29-.77,1.99-1.03.31-.11.54-.07.64.08.09.15.07.42-.14.71-.32.4-.68.79-1.02,1.18-.34.4-.7.79-1.06,1.17-.28.32-.59.63-.91.93l-.24.23-.23.23c-.15.16-.3.31-.45.47l.02.03Z"/>
  <g>
    <path class="st1" d="M90.74,43.85c-.16.03-.34,0-.52-.06s-.32-.19-.42-.35l-.09-.51c-.05-.29-.06-.59-.01-.9.05-.3.05-.6,0-.9-.23.04-.46.08-.7.1-.24.03-.45,0-.63-.1-.18-.1-.3-.31-.36-.64-.06-.33-.02-.57.13-.73.15-.16.34-.28.59-.36.24-.08.49-.15.72-.22.24-.07.41-.17.53-.32l.2-.29c.06-.16.09-.33.09-.51,0-.18.04-.35.11-.51.04-.15.11-.39.2-.71s.19-.67.29-1.04c.1-.37.2-.7.29-1,.09-.3.16-.5.19-.61.07-.21.17-.46.29-.76.12-.3.27-.57.46-.82.19-.25.4-.39.64-.44.36-.07.67-.01.94.16.26.17.49.4.69.67.2.27.38.53.55.77.74,1.07,1.44,2.2,2.09,3.39.65,1.19,1.22,2.39,1.71,3.61l.05.25c.04.21,0,.44-.1.69-.11.25-.26.39-.47.43-.31.06-.56.02-.75-.12-.19-.13-.35-.32-.47-.56-.12-.24-.23-.49-.32-.75-.09-.27-.19-.5-.29-.72-.11-.21-.25-.36-.42-.44l-1.44.27c-.16.03-.34.06-.53.09-.19.03-.37.06-.56.09-.23.04-.45.1-.67.16-.22.06-.42.15-.6.26-.23.13-.38.33-.45.58s-.1.53-.1.83c0,.3,0,.59-.02.88-.01.28-.08.53-.19.74s-.32.34-.62.39ZM92.29,38.33l.41-.08c.37-.07.72-.14,1.04-.2.32-.06.75-.16,1.28-.29l-.03-.15c-.02-.12-.06-.23-.11-.34-.05-.11-.11-.22-.19-.33-.12-.23-.28-.49-.47-.8-.19-.31-.38-.6-.55-.86-.17-.27-.3-.45-.37-.55-.01,0-.05,0-.1,0h-.05c-.06.13-.1.26-.12.39-.03.14-.07.27-.14.39-.02.12-.07.29-.13.52-.07.23-.13.48-.21.75-.08.27-.14.52-.21.76-.06.24-.11.44-.14.58l.02.08c.02.09.04.13.07.12Z"/>
    <path class="st1" d="M102.29,41.98c-.25.05-.46,0-.61-.15-.16-.15-.28-.34-.36-.59-.08-.24-.15-.5-.2-.76-.02-.13-.04-.26-.06-.39-.02-.13-.04-.24-.06-.35-.05-.26-.12-.67-.21-1.21-.09-.55-.19-1.18-.3-1.88-.11-.71-.22-1.45-.32-2.22-.11-.77-.2-1.51-.27-2.23-.07-.72-.12-1.36-.14-1.91-.01-.51.05-.92.2-1.26s.33-.52.53-.55c.19-.03.37.08.56.35.19.27.32.75.42,1.43.02,1.29.09,2.53.21,3.72.12,1.19.29,2.4.52,3.65.1.52.22,1.04.37,1.56.15.51.28,1.03.37,1.56.06.34.04.62-.07.83-.11.22-.3.35-.59.4Z"/>
    <path class="st1" d="M109.09,45.41c-.34-.05-.67-.14-.99-.27-.32-.13-.6-.29-.82-.49-.22-.2-.36-.44-.41-.71-.05-.25,0-.45.17-.61s.34-.25.55-.29c.24-.04.45,0,.64.11s.38.23.59.35c.21.11.44.15.7.1.32-.06.58-.21.78-.47.2-.25.35-.56.46-.91s.17-.73.19-1.12c.02-.39.01-.75-.04-1.08,0-.08-.02-.25-.04-.51-.03-.26-.05-.54-.08-.82-.03-.29-.05-.5-.07-.63l-.03-.16c-.02-.09-.05-.13-.09-.12h-.07c-.26.46-.52.91-.79,1.38-.27.47-.59.87-.97,1.22-.38.35-.84.57-1.4.67-.43.08-.84.04-1.26-.11s-.77-.39-1.06-.72c-.3-.33-.49-.72-.57-1.18-.14-.75-.13-1.53.03-2.33.16-.8.44-1.56.85-2.27.41-.71.93-1.31,1.55-1.81.63-.5,1.34-.82,2.15-.97.22-.04.45-.04.71-.01.25.03.48.12.68.26s.33.35.38.63c.05.25,0,.47-.16.66-.15.19-.35.3-.6.35-.17.03-.35.04-.53.01s-.36-.02-.53.01l-.33.06c-.57.29-1.05.69-1.46,1.23-.4.53-.7,1.12-.87,1.75-.18.64-.21,1.26-.1,1.86l.1.56c.15.3.36.42.63.38.25-.05.49-.19.7-.42.22-.23.42-.51.61-.83s.36-.64.52-.96.3-.58.45-.8c.11-.31.25-.62.41-.91s.3-.6.42-.92c.09-.18.19-.3.29-.38.1-.07.22-.12.38-.15.27-.05.49-.01.64.11.15.12.28.29.37.5.09.21.17.41.23.6l.23,1.23c.08.45.16.96.24,1.53.08.57.13,1.17.16,1.79.03.62,0,1.23-.06,1.83-.07.6-.21,1.16-.41,1.67s-.5.94-.89,1.3c-.39.35-.89.59-1.51.7l-.66.12Z"/>
    <path class="st1" d="M117.05,39c-.47.09-.88.06-1.23-.09-.35-.15-.64-.37-.88-.66-.24-.29-.42-.63-.57-1-.14-.38-.25-.75-.32-1.13l-.15-.8s-.01-.16-.02-.39c0-.23-.02-.48-.03-.75-.01-.27-.02-.47-.02-.61,0-.16.01-.36.02-.6,0-.24.03-.49.07-.74.04-.25.11-.47.22-.65.11-.18.26-.29.46-.33.29-.05.54,0,.73.14s.31.34.35.59c.04.21.05.42.02.62-.02.21-.04.42-.04.63,0,.43,0,.86,0,1.28,0,.43.05.86.13,1.28.03.15.07.35.14.58.07.24.17.44.3.61s.32.23.56.18c.19-.03.38-.19.6-.48.21-.29.43-.65.65-1.08s.43-.91.65-1.41c.21-.51.41-1,.58-1.48.18-.48.33-.9.45-1.27.12-.37.21-.62.26-.77.07-.14.14-.25.22-.35.08-.09.2-.16.36-.18.51-.09.86.09,1.05.55l.11.59c.09.48.16.96.22,1.44.06.48.13.94.21,1.39l.18.97c.07.17.17.31.3.44.14.12.26.24.38.36.12.12.19.27.23.46.05.25,0,.48-.11.68-.12.2-.31.33-.56.37-.33.06-.61,0-.85-.19s-.44-.42-.61-.71c-.1-.18-.22-.42-.36-.72-.14-.3-.27-.59-.41-.88-.11.31-.24.63-.39.94-.15.32-.31.62-.48.93-.27.5-.61.98-1.01,1.42-.4.45-.88.72-1.42.82Z"/>
    <path class="st1" d="M126.49,37.1c-.27.05-.49,0-.65-.13-.16-.13-.28-.32-.35-.54-.08-.23-.13-.45-.17-.67-.09-.5-.17-1.01-.24-1.51-.07-.51-.14-.99-.23-1.45-.09-.49-.23-.95-.42-1.38-.19-.43-.33-.86-.41-1.31l-.12-.64c.06-.25.13-.42.23-.52.09-.1.23-.17.42-.21.34-.06.6,0,.8.18.19.19.34.42.44.7s.19.54.25.77c.03.12.1.35.2.69s.19.67.25.97h.07s.05-.09.05-.09c.15-.34.31-.71.47-1.1s.36-.77.58-1.12c.22-.36.48-.66.79-.92.3-.25.67-.42,1.09-.5.55-.1,1.04-.03,1.48.21.44.24.83.59,1.19,1.03.35.45.67.95.94,1.5.27.55.5,1.09.7,1.61.2.53.37.98.52,1.36l.08.41c.04.24.02.49-.07.75-.09.26-.27.42-.56.47-.29.05-.53.02-.69-.11-.17-.13-.29-.31-.38-.54-.04-.09-.1-.25-.17-.47s-.16-.46-.25-.71c-.09-.26-.18-.5-.25-.73-.08-.23-.13-.4-.18-.5-.07-.21-.19-.46-.36-.74s-.32-.52-.46-.72c-.14-.21-.31-.43-.51-.65s-.45-.31-.74-.25c-.26.05-.48.19-.66.41-.18.22-.32.48-.44.76-.11.28-.21.53-.29.75-.19.49-.36.97-.5,1.45-.14.48-.29,1-.44,1.56-.06.23-.11.48-.15.76-.04.28-.12.54-.23.76-.12.23-.33.37-.63.42Z"/>
    <path class="st1" d="M139.59,35.27c-.31.06-.66.1-1.06.12s-.8,0-1.2-.06c-.4-.06-.74-.2-1.03-.42-.29-.22-.48-.54-.56-.96-.05-.28-.03-.54.08-.78s.31-.39.63-.45c.2-.04.36-.01.49.06.13.08.25.18.35.31.11.13.23.25.38.38.14.13.32.22.54.28.22.06.5.06.85,0,.25-.05.52-.13.81-.24s.53-.28.72-.48c.19-.2.26-.45.2-.73-.05-.25-.19-.43-.42-.54s-.53-.19-.87-.24c-.35-.05-.71-.1-1.09-.14-.38-.05-.75-.13-1.11-.24-.36-.11-.67-.3-.93-.55s-.43-.61-.52-1.07c-.08-.43-.04-.81.11-1.15.15-.34.38-.65.67-.91.3-.26.63-.48,1-.64.37-.16.74-.28,1.1-.35.21-.04.45-.06.73-.06.28,0,.56.03.85.09.28.06.53.17.74.33.21.16.34.38.39.66.09.5-.11.8-.62.89l-.21.04c-.36-.12-.67-.21-.91-.27-.25-.06-.52-.06-.81,0-.13.02-.31.07-.54.14-.23.07-.43.17-.6.3s-.23.31-.19.53c.03.19.17.32.4.4s.52.15.87.2c.35.05.71.1,1.1.17.38.06.76.17,1.12.31.37.14.68.35.94.61.26.27.44.63.52,1.09.12.67.06,1.23-.2,1.7-.26.47-.63.84-1.12,1.11-.49.28-1.01.47-1.58.57Z"/>
    <path class="st1" d="M153.82,32.74c-.34.06-.61,0-.81-.17-.2-.18-.36-.41-.46-.7-.1-.29-.18-.56-.23-.81l-.12-.62c-.13-.69-.24-1.38-.34-2.09-.1-.71-.22-1.46-.36-2.27-.27.06-.5.12-.69.18-.19.06-.38.1-.58.14-.5.09-.8-.11-.89-.6-.03-.18-.03-.37,0-.55.03-.18.15-.31.35-.4l1.38-.59c.18-.08.28-.22.3-.42.02-.2.02-.43-.03-.69-.04-.26-.07-.51-.09-.77-.02-.26.02-.48.13-.67.11-.19.32-.31.65-.38.23-.04.41-.01.55.09s.24.24.32.41c.08.17.13.33.16.5,0,.02.01.1.03.22.01.13.02.25.03.38,0,.12.01.2.02.23l.1.52,2-.37c.24-.04.45.03.62.23.17.2.28.41.32.64,0,.04,0,.13,0,.25,0,.13-.05.25-.12.37-.07.12-.18.19-.33.22l-2.1.39s-.03.01-.06.04c-.03.02-.06.07-.09.13l-.02.06c0,.3,0,.55.02.73.01.18.03.35.05.5.02.15.05.33.09.53.11.6.23,1.2.37,1.79.14.6.27,1.23.39,1.89.04.22.07.45.07.68,0,.24-.03.44-.12.62-.09.18-.26.29-.51.34Z"/>
    <path class="st1" d="M159.79,31.47c-.2.04-.36,0-.48-.12s-.22-.26-.28-.43c-.07-.17-.13-.33-.19-.46l-.22-1.21c-.11-.61-.2-1.23-.26-1.87-.06-.64-.15-1.26-.26-1.86-.05-.28-.13-.55-.23-.8-.1-.25-.18-.51-.23-.79l-.08-.44c.06-.18.15-.32.29-.42.13-.1.28-.17.45-.2.24-.04.43,0,.58.11.15.11.26.26.34.44s.16.33.23.47.16.21.26.21c.28-.26.54-.52.8-.77.25-.25.53-.47.83-.65.3-.18.65-.31,1.04-.39.2-.04.42-.03.66.02.24.05.46.13.65.26.19.13.31.31.35.54.05.28-.02.51-.22.68-.2.17-.4.28-.59.31-.13.02-.26.02-.39-.01-.13-.03-.26-.04-.39-.01-.38.07-.72.23-1.02.48-.3.25-.55.53-.75.84s-.36.59-.47.85c-.03.11-.03.28,0,.51.02.23.05.5.09.79.04.29.09.57.13.85.04.27.08.51.1.71.06.36.08.72.09,1.06,0,.34-.06.64-.17.88-.11.24-.32.39-.63.45Z"/>
    <path class="st1" d="M168.61,29.85c-.5.09-.99.06-1.47-.09-.48-.15-.9-.39-1.27-.72-.37-.33-.64-.74-.82-1.21l-.15-.83c-.11-.61-.12-1.25-.01-1.91.1-.66.31-1.3.62-1.9.31-.6.71-1.12,1.21-1.54.5-.42,1.08-.7,1.75-.82.27-.05.52-.04.74.02.22.06.42.13.61.2s.37.11.53.1c0-.46.07-.78.2-.96.13-.17.32-.29.58-.33.32-.06.55,0,.7.18.15.18.26.42.31.73.11.6.21,1.19.29,1.78.08.58.17,1.18.29,1.79.09.48.21.97.36,1.48s.27.99.36,1.47l.06.34c.04.24.04.47-.02.69-.05.22-.24.36-.56.42-.29.05-.52,0-.68-.15-.16-.16-.28-.36-.37-.61-.09-.25-.16-.47-.24-.68l-.08-.05c-.3.44-.57.84-.8,1.2-.23.36-.51.66-.82.91-.32.25-.75.42-1.31.52ZM168.14,28.22c.38-.07.72-.25,1.03-.55.3-.3.55-.66.76-1.09.2-.43.34-.86.42-1.3.08-.44.08-.85.02-1.21-.05-.27-.14-.54-.27-.81-.13-.26-.3-.48-.52-.64-.22-.16-.49-.21-.82-.15-.36.07-.69.26-.99.57-.3.31-.55.69-.75,1.13-.2.44-.35.88-.43,1.33-.09.45-.1.85-.04,1.18.05.27.14.54.27.8.13.26.31.46.53.61s.48.19.79.13Z"/>
    <path class="st1" d="M179.08,27.58c-.21.04-.37.07-.48.08-.12.02-.26.02-.43,0-.08-.03-.2-.06-.34-.1-.14-.04-.28-.07-.41-.1s-.22-.04-.28-.03c-.08.01-.18.1-.31.27-.13.17-.3.27-.5.3-.28.05-.5-.01-.65-.19-.15-.18-.24-.4-.29-.67-.04-.24-.07-.46-.09-.65-.01-.2,0-.42.01-.67-.06-1.23-.16-2.49-.3-3.78-.14-1.29-.33-2.56-.56-3.82-.06-.32-.12-.63-.17-.93-.06-.31-.12-.61-.2-.91-.05-.22-.01-.38.11-.49.12-.11.28-.19.45-.22l.15-.03c.24-.04.45-.02.64.07.19.09.33.28.43.58l.16.88c.12.63.22,1.27.32,1.9.09.64.2,1.32.32,2.04h.05c.35-.6.77-1.13,1.25-1.59s1.05-.75,1.72-.88c.51-.09,1.03-.07,1.56.08.53.14.99.4,1.38.76.39.36.64.82.74,1.36.13.73.13,1.46-.02,2.2-.15.73-.42,1.42-.81,2.05-.39.64-.88,1.17-1.46,1.62-.58.44-1.25.73-2.01.87ZM178.76,25.83c.42-.08.84-.26,1.24-.55.4-.29.75-.64,1.04-1.05.3-.42.52-.86.66-1.33.15-.47.18-.92.1-1.35-.06-.35-.25-.65-.55-.91-.3-.25-.64-.35-1.01-.28-.39.07-.73.23-1.02.48-.29.25-.54.54-.75.88-.21.34-.4.7-.55,1.08-.16.38-.3.73-.43,1.06-.04.19-.1.4-.18.64-.07.24-.09.46-.06.65s.14.35.32.47c.18.11.38.19.61.22.23.03.42.03.58,0Z"/>
    <path class="st1" d="M188.97,26.1c-.5.09-.99.06-1.47-.08-.48-.15-.9-.39-1.27-.72-.37-.33-.64-.74-.82-1.21l-.15-.83c-.11-.61-.12-1.25-.01-1.91.1-.66.31-1.3.62-1.9.31-.6.71-1.12,1.21-1.54.5-.42,1.08-.7,1.75-.82.27-.05.52-.04.74.02.22.06.42.13.61.2.19.07.37.11.53.1,0-.46.07-.78.2-.96.13-.17.32-.29.58-.33.32-.06.55,0,.7.18.15.18.26.42.31.73.11.6.21,1.19.29,1.78.08.58.17,1.18.29,1.79.09.48.21.97.36,1.48.15.5.27.99.36,1.47l.06.34c.04.24.04.47-.02.69-.05.22-.24.36-.56.42-.29.05-.52,0-.68-.15s-.28-.36-.37-.61c-.09-.25-.16-.47-.24-.68l-.08-.05c-.3.44-.57.84-.8,1.2-.23.36-.51.66-.82.91-.32.25-.75.42-1.31.52ZM188.5,24.47c.38-.07.72-.25,1.02-.55.3-.3.55-.66.76-1.09.2-.43.34-.86.42-1.3.08-.44.08-.85.01-1.21-.05-.27-.14-.54-.27-.81-.13-.26-.3-.48-.52-.64-.22-.16-.49-.21-.82-.16-.36.07-.69.26-.99.57-.3.31-.55.69-.75,1.13-.2.44-.35.88-.43,1.33-.09.45-.1.85-.04,1.18.05.27.14.54.27.8.13.26.31.46.53.61.22.15.48.19.79.13Z"/>
    <path class="st1" d="M197.4,24.46c-.25.05-.46,0-.61-.15s-.28-.34-.36-.58c-.08-.24-.15-.5-.2-.76-.02-.13-.04-.26-.06-.39-.02-.13-.04-.24-.06-.35-.05-.26-.12-.67-.21-1.22-.09-.55-.19-1.18-.3-1.88-.11-.71-.22-1.45-.32-2.22-.11-.77-.2-1.51-.27-2.24s-.12-1.36-.14-1.9c-.01-.51.05-.92.2-1.26s.33-.52.53-.55c.19-.03.37.08.56.35.19.27.32.75.42,1.43.02,1.29.09,2.53.21,3.72.12,1.19.29,2.4.52,3.65.1.52.22,1.04.37,1.56.15.51.28,1.03.37,1.56.06.34.04.62-.07.83-.11.22-.3.35-.59.4Z"/>
    <path class="st1" d="M201.14,23.6c-.31.06-.55,0-.74-.19s-.31-.42-.36-.71c-.12-.65-.2-1.33-.24-2.02-.04-.69-.12-1.35-.24-1.99-.2-1.09-.44-2.15-.71-3.17-.27-1.02-.51-2.08-.71-3.17l-.08-.43c.04-.19.13-.33.25-.43.12-.09.26-.16.42-.18.25-.05.47,0,.66.15.19.15.35.34.49.57.13.24.24.47.33.72.08.24.14.45.17.61l1,5.44.12.08v-.02c.25-.35.47-.73.67-1.15s.41-.83.64-1.23c.23-.4.5-.75.81-1.04.31-.29.7-.49,1.17-.57.42-.08.79-.03,1.13.13.34.16.63.4.87.72.24.32.42.66.55,1.03l1.13,3.38.09.49c.03.17.05.36.07.55.01.2-.02.37-.1.52-.08.15-.25.25-.5.29-.28.05-.53-.02-.73-.21s-.36-.45-.49-.76c-.13-.32-.23-.63-.31-.94-.08-.31-.15-.56-.2-.74-.03-.07-.06-.21-.12-.42-.05-.2-.12-.44-.21-.71-.08-.27-.18-.52-.28-.77-.1-.25-.21-.45-.32-.6-.11-.15-.23-.22-.35-.2-.19.03-.36.15-.52.33-.16.19-.28.37-.37.56-.43.85-.83,1.73-1.2,2.65s-.73,1.82-1.1,2.7c-.06.16-.15.31-.25.45-.11.14-.26.23-.44.27Z"/>
    <path class="st1" d="M214.7,21.19c-.79.14-1.55.11-2.29-.1-.74-.21-1.37-.59-1.9-1.14-.53-.54-.87-1.23-1.02-2.06-.1-.57-.08-1.12.06-1.64.15-.53.36-1.04.65-1.53.29-.49.58-.96.89-1.4.16-.23.37-.42.62-.56.26-.14.53-.24.81-.29.71-.13,1.41-.18,2.09-.15.68.03,1.32.17,1.9.42.58.25,1.08.63,1.49,1.13.41.51.69,1.16.84,1.97.12.67.09,1.3-.09,1.9-.18.6-.48,1.14-.88,1.62-.4.48-.88.88-1.42,1.2-.55.32-1.12.54-1.73.65ZM214.03,19.43c.6-.11,1.15-.32,1.64-.63.5-.31.88-.71,1.14-1.21s.34-1.06.22-1.69c-.1-.56-.35-.99-.74-1.3-.39-.31-.85-.51-1.37-.6-.52-.09-1.04-.09-1.56,0-.26.05-.47.13-.62.23-.15.11-.28.24-.38.39-.11.15-.23.34-.38.54-.25.37-.46.77-.63,1.19s-.21.87-.12,1.35c.14.76.47,1.27.99,1.53.52.25,1.12.32,1.8.19Z"/>
    <path class="st1" d="M224.65,19.61c-.3.06-.66.1-1.06.12-.4.02-.8,0-1.2-.06-.4-.06-.74-.2-1.03-.42-.29-.22-.48-.54-.56-.96-.05-.28-.03-.54.08-.78.1-.24.31-.39.63-.45.2-.04.36-.01.49.06.13.08.25.18.35.31.11.13.23.25.38.38.14.13.32.22.54.28.22.06.5.06.85,0,.25-.05.52-.13.81-.24.29-.11.53-.27.72-.48.19-.21.26-.45.2-.73-.05-.25-.19-.43-.42-.54s-.53-.19-.87-.24c-.35-.05-.71-.1-1.09-.15-.38-.05-.75-.13-1.11-.24s-.67-.3-.93-.55-.43-.61-.52-1.06c-.08-.43-.04-.81.11-1.15.15-.34.38-.65.67-.91s.63-.48,1-.64c.37-.17.74-.28,1.1-.35.21-.04.45-.06.73-.06.28,0,.56.03.85.09s.53.17.74.33c.21.16.34.38.39.66.09.5-.11.8-.62.89l-.21.04c-.36-.12-.67-.22-.91-.27-.25-.06-.52-.06-.81,0-.13.02-.31.07-.54.14-.23.07-.43.17-.6.3-.17.13-.23.31-.19.53.03.19.17.32.4.4s.52.15.87.2c.35.05.71.1,1.1.17.38.06.76.17,1.12.31.37.14.68.35.94.61.26.27.44.63.52,1.09.12.67.05,1.23-.2,1.7-.26.47-.63.84-1.12,1.11s-1.01.47-1.58.57Z"/>
    <path class="st1" d="M93.14,62.05c-.2.04-.36,0-.48-.12-.12-.11-.22-.26-.28-.43-.07-.17-.13-.33-.19-.46l-.22-1.21c-.11-.61-.2-1.24-.26-1.87-.06-.64-.15-1.26-.26-1.86-.05-.28-.13-.55-.23-.8s-.18-.51-.23-.79l-.08-.44c.06-.18.15-.32.29-.42.13-.1.28-.17.45-.2.24-.04.43,0,.58.11.15.11.26.26.34.44s.16.33.23.47c.07.14.16.21.26.21.28-.26.54-.52.8-.77.25-.25.53-.47.83-.65.3-.18.65-.31,1.04-.39.2-.04.41-.03.65.02.24.05.46.13.65.26.19.13.31.31.35.54.05.28-.02.51-.22.68-.2.17-.4.28-.59.31-.13.02-.26.02-.39-.01-.13-.03-.26-.04-.39-.01-.38.07-.72.23-1.02.48-.3.25-.55.53-.75.84-.2.31-.36.59-.47.85-.03.11-.03.28,0,.51.02.23.05.49.09.79.04.29.09.57.13.85.04.27.08.51.1.71.06.36.08.71.09,1.06,0,.34-.05.64-.17.88s-.32.39-.63.45Z"/>
    <path class="st1" d="M103.27,60.27c-.79.14-1.53.15-2.24.03-.71-.12-1.31-.42-1.81-.89-.5-.46-.83-1.13-.99-1.99-.12-.65-.13-1.31-.03-1.97.1-.66.3-1.28.61-1.86.31-.58.72-1.08,1.23-1.48.51-.41,1.12-.67,1.83-.8.48-.09.95-.07,1.4.04.46.11.85.33,1.17.65.32.32.53.74.63,1.26.09.5.08,1-.05,1.5-.12.5-.33.96-.62,1.39-.29.43-.65.78-1.07,1.07-.42.29-.87.47-1.36.56-.08.01-.25.03-.52.04s-.48,0-.64,0c-.11,0-.21-.03-.29-.08-.02,0-.07-.02-.12-.04-.06-.02-.1-.02-.12-.02.13.3.34.54.63.71.28.17.6.27.94.31.34.04.66.03.95-.02.21-.04.42-.09.62-.16s.43-.12.67-.17c.24-.04.46-.02.66.08.2.1.33.3.38.59.04.24,0,.44-.12.6-.12.16-.29.28-.51.36-.22.08-.44.15-.66.2s-.42.09-.58.12ZM101.63,55.86c.33-.06.64-.18.94-.37.3-.18.53-.42.7-.71.17-.29.22-.62.15-.99-.06-.32-.2-.55-.43-.7-.23-.15-.5-.2-.81-.14-.28.05-.57.18-.86.4-.29.21-.55.46-.78.75-.23.29-.41.59-.54.9-.12.31-.16.6-.11.86v.07c.3,0,.6,0,.89,0,.29,0,.58-.01.85-.06Z"/>
    <path class="st1" d="M111.52,58.24c-.79.14-1.48.07-2.08-.22-.6-.29-1.09-.72-1.48-1.3-.38-.58-.64-1.23-.77-1.95-.15-.82-.11-1.6.13-2.36.24-.75.64-1.4,1.22-1.94.57-.54,1.27-.89,2.1-1.04.25-.05.54-.07.86-.08.32,0,.64.02.96.1.32.07.59.19.82.36.23.17.37.42.43.75.04.24,0,.44-.16.61s-.35.27-.6.31c-.26.05-.51.02-.74-.07s-.46-.2-.7-.3c-.23-.1-.48-.12-.74-.08-.36.07-.67.24-.92.51-.25.27-.45.6-.6.97-.15.38-.24.76-.29,1.16-.04.4-.04.76.02,1.09.1.56.29.96.57,1.22.28.26.62.41,1.03.45.41.04.85.02,1.33-.07.45-.08.85-.25,1.21-.49s.71-.5,1.07-.76l.33-.06c.49-.09.78.11.87.6.05.29-.01.57-.2.82-.19.25-.44.47-.77.67-.32.2-.68.38-1.05.53-.38.15-.73.27-1.07.37-.33.09-.6.16-.79.2Z"/>
    <path class="st1" d="M121.83,56.85c-.79.14-1.53.16-2.24.03-.71-.12-1.31-.42-1.81-.89-.5-.46-.83-1.13-.99-1.99-.12-.65-.13-1.31-.03-1.97.1-.66.3-1.28.61-1.86.31-.58.72-1.08,1.23-1.48.51-.41,1.12-.67,1.83-.8.48-.09.95-.08,1.4.04.46.12.85.33,1.17.65.32.32.53.74.63,1.26.09.5.08,1-.05,1.5-.12.5-.33.96-.62,1.38-.29.43-.65.78-1.06,1.07-.42.29-.87.47-1.36.57-.08.01-.25.03-.52.04-.27.01-.48,0-.64,0-.11,0-.21-.03-.29-.08-.02,0-.07-.02-.13-.04-.06-.02-.1-.03-.12-.02.13.3.34.54.63.71.29.17.6.27.94.31.34.04.66.03.95-.02.21-.04.42-.09.62-.16.21-.07.43-.12.67-.17.24-.04.46-.02.66.08.2.1.33.29.38.59.04.24,0,.44-.12.6-.12.16-.29.28-.51.36-.22.08-.44.15-.66.2s-.42.08-.58.12ZM120.19,52.45c.33-.06.64-.18.94-.37.3-.19.53-.42.7-.71.17-.29.22-.62.15-.99-.06-.32-.2-.55-.42-.7-.23-.15-.5-.2-.81-.14-.28.05-.57.18-.86.4-.29.21-.55.46-.78.75-.23.29-.41.59-.54.9-.12.31-.16.6-.11.86v.07c.3,0,.6,0,.89,0s.58-.01.85-.06Z"/>
    <path class="st1" d="M127.71,55.17c-.27.05-.49,0-.65-.12s-.28-.32-.35-.54c-.08-.23-.13-.45-.17-.67-.09-.5-.17-1.01-.24-1.51-.07-.51-.14-.99-.22-1.45-.09-.49-.23-.95-.42-1.38-.19-.43-.33-.86-.41-1.31l-.12-.64c.06-.25.13-.42.23-.52.09-.1.23-.17.42-.21.34-.06.6,0,.79.18.19.19.34.42.44.7.1.28.19.54.25.78.03.12.1.35.2.69.1.34.19.67.26.97h.07s.05-.09.05-.09c.15-.34.31-.71.47-1.1s.36-.77.58-1.12c.22-.36.48-.66.79-.92.3-.25.67-.42,1.09-.5.55-.1,1.04-.03,1.48.21.44.24.84.59,1.19,1.03.35.45.67.95.94,1.5.27.55.51,1.09.7,1.61.2.53.37.98.52,1.36l.08.41c.04.24.02.49-.07.75-.09.26-.27.42-.56.47-.29.05-.52.02-.69-.11-.17-.13-.29-.31-.38-.54-.04-.09-.1-.25-.17-.47-.07-.22-.16-.46-.25-.72-.09-.26-.18-.5-.25-.73-.08-.23-.13-.4-.18-.5-.07-.21-.19-.46-.36-.74-.17-.28-.32-.52-.46-.72-.14-.21-.31-.43-.51-.65-.2-.22-.45-.31-.74-.25-.26.05-.48.18-.66.41-.18.23-.32.48-.44.76-.11.28-.21.53-.29.75-.19.49-.36.97-.5,1.45-.14.48-.29,1-.44,1.56-.06.23-.11.48-.15.76-.04.28-.12.54-.23.76-.12.22-.33.36-.63.42Z"/>
    <path class="st1" d="M140.41,53.51c-.34.06-.61,0-.81-.17-.2-.18-.36-.41-.46-.7-.1-.29-.18-.56-.23-.81l-.11-.62c-.13-.69-.24-1.38-.34-2.09-.1-.7-.22-1.46-.36-2.27-.27.06-.5.12-.69.18-.19.06-.38.1-.58.14-.5.09-.8-.11-.89-.6-.03-.19-.03-.37,0-.55.04-.18.15-.31.35-.4l1.38-.59c.18-.08.28-.22.3-.42.03-.2.02-.43-.02-.69-.04-.26-.07-.51-.09-.77-.02-.26.02-.48.13-.67s.32-.31.65-.37c.23-.04.41-.01.55.09.14.11.24.24.32.41s.13.33.16.49c0,.02.01.1.02.22.01.13.02.25.03.38,0,.12.01.2.02.23l.1.52,2-.37c.24-.04.45.03.62.23.17.2.28.41.32.64,0,.04,0,.13,0,.25-.01.13-.05.25-.12.37-.07.12-.18.19-.33.22l-2.1.39s-.03.01-.06.04c-.03.02-.06.06-.09.13l-.02.06c0,.3,0,.55.02.73.01.18.03.35.05.5.02.15.05.33.09.53.11.6.24,1.2.37,1.79.14.59.27,1.22.39,1.89.04.22.07.45.08.68,0,.24-.03.44-.12.62-.09.18-.26.29-.51.34Z"/>
    <path class="st1" d="M149.88,51.69c-.79.14-1.53.15-2.24.03-.71-.12-1.31-.42-1.81-.89-.5-.46-.83-1.13-.99-1.99-.12-.65-.13-1.31-.03-1.97.1-.66.3-1.28.61-1.86.31-.58.72-1.08,1.23-1.48.51-.41,1.12-.67,1.83-.8.48-.09.95-.07,1.4.04.46.11.85.33,1.17.65s.53.74.63,1.26c.09.5.08,1-.05,1.5-.12.5-.33.96-.62,1.39-.29.43-.65.78-1.07,1.07-.42.29-.87.47-1.36.56-.08.01-.25.03-.52.04s-.48,0-.64,0c-.11,0-.21-.03-.29-.08-.02,0-.07-.02-.12-.04-.06-.02-.1-.02-.12-.02.13.3.35.54.63.71.29.17.6.27.94.31.34.04.66.03.95-.02.21-.04.42-.09.62-.16.21-.07.43-.12.67-.17.24-.04.46-.02.66.08.2.1.33.3.38.59.04.24,0,.44-.12.6-.12.16-.29.28-.51.36s-.44.15-.66.2-.42.09-.58.12ZM148.24,47.28c.33-.06.64-.18.94-.37.3-.18.53-.42.7-.71.17-.29.22-.62.15-.99-.06-.32-.2-.55-.43-.7-.23-.15-.5-.2-.81-.14-.28.05-.57.18-.86.4-.29.21-.55.46-.78.75-.23.29-.41.59-.54.9-.12.31-.16.6-.11.86v.07c.3,0,.6,0,.89,0,.29,0,.58-.01.85-.06Z"/>
    <path class="st1" d="M157.84,50.22c-.31.06-.66.1-1.06.12s-.8,0-1.2-.06c-.4-.06-.74-.2-1.03-.42-.29-.22-.48-.54-.56-.96-.05-.28-.03-.54.08-.78s.31-.39.63-.45c.2-.04.36-.01.49.06.13.08.24.18.35.31.11.13.23.25.38.38.14.12.32.22.54.28.22.06.5.06.85,0,.25-.05.52-.13.81-.24.29-.11.53-.27.72-.48.19-.21.26-.45.2-.73-.05-.25-.19-.43-.42-.54-.23-.11-.53-.19-.87-.24-.35-.05-.71-.1-1.09-.15-.38-.05-.75-.13-1.11-.24-.36-.11-.67-.3-.93-.55-.26-.25-.43-.61-.52-1.06-.08-.43-.04-.81.11-1.15s.38-.65.67-.91c.3-.26.63-.48,1-.64.37-.17.74-.28,1.1-.35.21-.04.45-.06.73-.06s.56.03.85.09c.28.06.53.17.74.33s.34.38.39.66c.09.5-.11.8-.62.89l-.21.04c-.36-.12-.67-.22-.91-.27-.25-.06-.52-.06-.81,0-.13.02-.31.07-.54.14-.23.07-.43.17-.6.3-.17.13-.23.31-.19.53.03.19.17.32.4.4.23.08.52.15.87.2.35.05.71.1,1.1.17.38.06.76.17,1.12.31.37.14.68.35.94.61.26.27.44.63.52,1.09.12.67.06,1.23-.2,1.7-.26.47-.63.84-1.12,1.11-.49.28-1.01.47-1.58.57Z"/>
  </g>
</svg>